<svg width="34" height="34" viewBox="0 0 34 34" fill="none" xmlns="http://www.w3.org/2000/svg">
<g clip-path="url(#clip0_1081_470)">
<path d="M0 17C0 7.61116 7.61116 0 17 0C26.3888 0 34 7.61116 34 17C34 26.3888 26.3888 34 17 34C7.61116 34 0 26.3888 0 17Z" fill="black"/>
<path d="M23.6174 21.9141L24.3711 17H19.6562V13.8125C19.6562 12.4678 20.3137 11.1562 22.4254 11.1562H24.5703V6.97266C24.5703 6.97266 22.6246 6.64062 20.7652 6.64062C16.8805 6.64062 14.3437 8.99473 14.3437 13.2547V17H10.0273V21.9141H14.3437V33.7941C15.2104 33.9303 16.0969 34 17 34C17.9031 34 18.7896 33.9303 19.6562 33.7941V21.9141H23.6174Z" fill="white"/>
</g>
<defs>
<clipPath id="clip0_1081_470">
<path d="M0 17C0 7.61116 7.61116 0 17 0C26.3888 0 34 7.61116 34 17C34 26.3888 26.3888 34 17 34C7.61116 34 0 26.3888 0 17Z" fill="white"/>
</clipPath>
</defs>
</svg>
