<svg width="24" height="24" viewBox="0 0 66 66" fill="none" xmlns="http://www.w3.org/2000/svg">
<rect width="66" height="66" rx="33" fill="white"/>
<g clip-path="url(#clip0_1906_3355)">
<path d="M40.2053 16.5H34.5082V38.9782C34.5082 41.6565 32.317 43.8565 29.5902 43.8565C26.8634 43.8565 24.6722 41.6565 24.6722 38.9782C24.6722 36.3479 26.8147 34.1956 29.4441 34.1V28.4565C23.6496 28.5521 18.9751 33.1913 18.9751 38.9782C18.9751 44.8131 23.747 49.5 29.6389 49.5C35.5307 49.5 40.3026 44.7652 40.3026 38.9782V27.4522C42.4452 28.9826 45.0746 29.8913 47.8501 29.9392V24.2957C43.5651 24.1522 40.2053 20.7087 40.2053 16.5Z" fill="#222222"/>
</g>
<defs>
<clipPath id="clip0_1906_3355">
<rect width="33" height="33" fill="white" transform="translate(16.5 16.5)"/>
</clipPath>
</defs>
</svg>
