<svg width="34" height="34" viewBox="0 0 34 34" fill="none" xmlns="http://www.w3.org/2000/svg">
<path d="M0 17C0 7.61116 7.61116 0 17 0C26.3888 0 34 7.61116 34 17C34 26.3888 26.3888 34 17 34C7.61116 34 0 26.3888 0 17Z" fill="black"/>
<path d="M13.889 25.9677C21.4285 25.9677 25.551 19.7202 25.551 14.3057C25.551 14.1272 25.551 13.9487 25.5425 13.7787C26.3415 13.2007 27.0385 12.4782 27.591 11.6537C26.86 11.9767 26.0695 12.1977 25.2365 12.2997C26.0865 11.7897 26.7325 10.9907 27.0385 10.0302C26.248 10.4977 25.3725 10.8377 24.4375 11.0247C23.6895 10.2257 22.627 9.73267 21.4455 9.73267C19.1845 9.73267 17.3485 11.5687 17.3485 13.8297C17.3485 14.1527 17.3825 14.4672 17.459 14.7647C14.0505 14.5947 11.033 12.9627 9.01001 10.4807C8.66151 11.0842 8.45751 11.7897 8.45751 12.5377C8.45751 13.9572 9.18001 15.2152 10.285 15.9462C9.61351 15.9292 8.98451 15.7422 8.43201 15.4362C8.43201 15.4532 8.43201 15.4702 8.43201 15.4872C8.43201 17.4762 9.84301 19.1252 11.7215 19.5077C11.3815 19.6012 11.016 19.6522 10.642 19.6522C10.3785 19.6522 10.1235 19.6267 9.86851 19.5757C10.387 21.2077 11.9 22.3892 13.6935 22.4232C12.291 23.5197 10.523 24.1742 8.60201 24.1742C8.27051 24.1742 7.94751 24.1572 7.62451 24.1147C9.41801 25.2877 11.577 25.9677 13.889 25.9677Z" fill="white"/>
</svg>
