<svg width="34" height="34" viewBox="0 0 34 34" fill="none" xmlns="http://www.w3.org/2000/svg">
<path d="M0 17C0 7.61116 7.61116 0 17 0C26.3888 0 34 7.61116 34 17C34 26.3888 26.3888 34 17 34C7.61116 34 0 26.3888 0 17Z" fill="black"/>
<path d="M6.68787 26.8885L8.14552 21.5953C7.24434 20.0417 6.77158 18.2822 6.77651 16.4835C6.77651 10.8472 11.3859 6.26465 17.0441 6.26465C19.792 6.26465 22.3724 7.32819 24.3078 9.25923C26.248 11.1903 27.3167 13.7584 27.3117 16.4884C27.3117 22.1246 22.7024 26.7072 17.0392 26.7072H17.0343C15.3156 26.7072 13.6265 26.2759 12.1245 25.4623L6.68787 26.8885ZM12.3855 23.6146L12.6958 23.8008C14.0057 24.5752 15.5077 24.982 17.0392 24.9869H17.0441C21.747 24.9869 25.5783 21.1787 25.5783 16.4933C25.5783 14.2241 24.6919 12.0921 23.0816 10.4845C21.4713 8.87694 19.3242 7.99474 17.0441 7.99474C12.3412 7.98984 8.50994 11.798 8.50994 16.4835C8.50994 18.0861 8.95807 19.6496 9.81493 21.0023L10.0168 21.3258L9.15505 24.4576L12.3855 23.6146Z" fill="white"/>
<path d="M7.04736 26.5309L8.45577 21.419C7.58414 19.9242 7.12616 18.2235 7.12616 16.4885C7.13108 11.0483 11.5779 6.62256 17.0441 6.62256C19.6984 6.62256 22.1853 7.65179 24.0566 9.51422C25.9279 11.3766 26.9572 13.8566 26.9572 16.4934C26.9572 21.9336 22.5054 26.3593 17.0441 26.3593H17.0392C15.3796 26.3593 13.7496 25.9427 12.3018 25.1586L7.04736 26.5309Z" fill="black"/>
<path d="M6.68787 26.8885L8.14552 21.5953C7.24434 20.0417 6.77158 18.2822 6.77651 16.4835C6.77651 10.8472 11.3859 6.26465 17.0441 6.26465C19.792 6.26465 22.3724 7.32819 24.3078 9.25923C26.248 11.1903 27.3167 13.7584 27.3117 16.4884C27.3117 22.1246 22.7024 26.7072 17.0392 26.7072H17.0343C15.3156 26.7072 13.6265 26.2759 12.1245 25.4623L6.68787 26.8885ZM12.3855 23.6146L12.6958 23.8008C14.0057 24.5752 15.5077 24.982 17.0392 24.9869H17.0441C21.747 24.9869 25.5783 21.1787 25.5783 16.4933C25.5783 14.2241 24.6919 12.0921 23.0816 10.4845C21.4713 8.87694 19.3242 7.99474 17.0441 7.99474C12.3412 7.98984 8.50994 11.798 8.50994 16.4835C8.50994 18.0861 8.95807 19.6496 9.81493 21.0023L10.0168 21.3258L9.15505 24.4576L12.3855 23.6146Z" fill="white"/>
<path fill-rule="evenodd" clip-rule="evenodd" d="M14.4784 12.2099C14.2863 11.7835 14.0844 11.7737 13.9022 11.7688C13.7545 11.7639 13.5821 11.7639 13.4097 11.7639C13.2374 11.7639 12.9616 11.8276 12.7252 12.0825C12.4889 12.3373 11.829 12.9549 11.829 14.2145C11.829 15.4692 12.7499 16.6846 12.8779 16.8562C13.0059 17.0277 14.6556 19.689 17.2607 20.7133C19.4275 21.5661 19.8707 21.3946 20.3385 21.3505C20.8064 21.3064 21.8553 20.733 22.072 20.135C22.2837 19.5371 22.2837 19.0274 22.2197 18.9195C22.1557 18.8117 21.9833 18.748 21.7273 18.6206C21.4712 18.4931 20.2105 17.8756 19.9741 17.7874C19.7377 17.7041 19.5654 17.66 19.398 17.9148C19.2256 18.1697 18.7331 18.7431 18.5854 18.9146C18.4377 19.0862 18.285 19.1058 18.0289 18.9784C17.7729 18.8509 16.9455 18.5814 15.9656 17.709C15.2023 17.0326 14.6852 16.1945 14.5375 15.9397C14.3897 15.6848 14.5227 15.5476 14.6507 15.4201C14.764 15.3074 14.9068 15.1212 15.0348 14.9741C15.1629 14.8271 15.2072 14.7193 15.2909 14.5477C15.3746 14.3762 15.3352 14.2292 15.2712 14.1017C15.2072 13.9792 14.7049 12.7147 14.4784 12.2099Z" fill="white"/>
</svg>
